<svg width="2895" height="488" viewBox="0 0 2895 488" fill="none" xmlns="http://www.w3.org/2000/svg">
<path d="M1739.62 1.42366C1740.17 0.208827 1741.6 -0.333623 1742.81 0.212701C1744.03 0.759377 1744.57 2.18776 1744.03 3.40267L1526.9 485.903C1526.35 487.118 1524.93 487.66 1523.71 487.114C1522.5 486.567 1521.95 485.139 1522.5 483.924L1739.62 1.42366Z" fill="#070707"/>
<g clip-path="url(#clip0_1226_10407)">
<path d="M323.009 328.676C329.436 323.976 332.944 314.87 333.621 307.119C335.862 281.192 334.84 253.776 334.262 226.434C333.744 204.572 337.056 191.902 322.27 178.072C307.484 164.242 286.986 156.906 270.181 146.921C239.058 128.44 208.329 108.946 177.045 90.8316C173.044 88.5124 154.762 80.4683 153.469 77.6608C152.989 76.6354 152.817 75.5246 153.186 74.4383C153.58 73.2664 167.984 65.9181 170.311 64.5388C179.877 58.8749 189.357 52.7229 199.563 48.0478C218.313 39.4666 238.799 57.9839 254.398 67.0899L352.236 124.644C368.672 134.421 393.11 141.769 394.341 164.046C392.137 221.759 397.985 282.572 394.587 339.942C394.23 346.033 392.42 355.017 388.198 359.717C380.392 368.408 365.138 374.255 355.191 379.955C324.819 397.362 296.059 416.245 264.641 431.894C256.688 435.861 249.818 441.879 240.092 441.464C229.504 441.012 207.356 425.876 197.704 420.249C186.427 413.682 170.902 406.175 160.671 398.79C153.469 393.602 148.495 382.97 147.806 374.255C145.504 345.338 149.714 313.564 148.545 284.732L147.941 218.414L149.062 217.242C153.149 215.936 174.177 229.962 178.978 232.769C197.076 243.352 210.298 246.453 212.514 271.281C214.767 296.499 211.308 323.28 213.253 348.133C213.832 355.567 219.421 362.524 225.811 366.26C230.157 368.799 241.138 372.338 245.952 371.557C249.522 370.983 264.518 363.245 268.42 361.023L323.046 328.651L323.009 328.676Z" fill="#1B83FF"/>
<path d="M303.269 290.858C303.318 290.505 303.379 290.138 303.416 289.772C303.466 289.369 303.478 288.966 303.453 288.551C302.296 265.603 305.164 240.983 303.527 218.266C301.754 193.634 282.758 188.873 264.106 177.924C223.934 154.341 183.959 129.903 143.516 106.906C140.192 105.014 136.597 102.268 133.261 100.669C120.974 94.8095 114.548 98.1175 103.258 103.256C94.5293 107.224 66.4348 122.274 62.4829 129.952C59.1342 136.446 60.1929 142.122 59.7867 148.921C56.4503 205.974 58.4447 269.058 58.9864 326.502C59.1465 343.627 77.2565 350.829 89.8633 358.275C94.0615 360.753 102.618 365.099 108.109 368.382C110.46 369.786 113.452 368.138 113.501 365.416L116.911 169.025C117.121 166.962 117.096 165.424 119.62 164.948C132.584 168.903 142.913 177.558 154.313 184.247C175.095 196.453 196.591 207.879 217.261 220.293C223.848 224.247 234.867 230.754 238.092 237.675C247.867 258.694 244.359 293.556 243.62 317.896C243.521 321.057 244.002 329.492 243.485 333.081C243.361 333.935 243.497 334.839 244.039 335.522C244.728 336.401 245.836 336.804 247.104 336.255L287.842 312.867C296.029 308.167 301.853 300.135 303.269 290.858Z" fill="#1B83FF"/>
</g>
<path d="M2837.91 137.123L2827.8 139.978C2826.81 137.123 2825.4 134.538 2823.58 132.221C2821.76 129.904 2819.38 128.063 2816.44 126.698C2813.55 125.332 2809.95 124.65 2805.64 124.65C2799.19 124.65 2793.9 126.18 2789.76 129.242C2785.62 132.303 2783.55 136.254 2783.55 141.095C2783.55 145.191 2784.96 148.521 2787.77 151.086C2790.63 153.61 2795.01 155.616 2800.93 157.106L2815.33 160.643C2823.31 162.587 2829.29 165.67 2833.26 169.889C2837.27 174.109 2839.28 179.405 2839.28 185.776C2839.28 191.154 2837.79 195.933 2834.81 200.111C2831.83 204.29 2827.68 207.579 2822.34 209.978C2817.04 212.337 2810.9 213.516 2803.91 213.516C2794.6 213.516 2786.92 211.426 2780.88 207.248C2774.84 203.028 2770.98 196.946 2769.28 189.003L2779.89 186.397C2781.26 192.065 2783.92 196.347 2787.9 199.243C2791.91 202.139 2797.18 203.587 2803.72 203.587C2811.04 203.587 2816.9 201.952 2821.28 198.684C2825.67 195.374 2827.86 191.237 2827.86 186.273C2827.86 182.425 2826.58 179.198 2824.01 176.592C2821.45 173.944 2817.56 171.999 2812.35 170.758L2796.77 167.035C2788.5 165.049 2782.37 161.905 2778.4 157.602C2774.43 153.299 2772.44 147.963 2772.44 141.591C2772.44 136.337 2773.87 131.724 2776.73 127.753C2779.58 123.74 2783.51 120.595 2788.52 118.32C2793.52 116.044 2799.23 114.907 2805.64 114.907C2814.37 114.907 2821.35 116.893 2826.56 120.864C2831.81 124.795 2835.6 130.214 2837.91 137.123Z" fill="#070707"/>
<path d="M2733.58 175.102V116.21H2744.63V211.53H2733.58V195.705H2732.71C2730.48 200.587 2726.94 204.662 2722.1 207.931C2717.26 211.158 2711.34 212.771 2704.35 212.771C2698.27 212.771 2692.87 211.447 2688.16 208.799C2683.44 206.11 2679.74 202.18 2677.05 197.008C2674.36 191.837 2673.01 185.487 2673.01 177.957V116.21H2684.06V177.274C2684.06 184.721 2686.25 190.72 2690.64 195.271C2695.02 199.78 2700.65 202.035 2707.52 202.035C2711.82 202.035 2715.96 201.001 2719.93 198.932C2723.9 196.864 2727.17 193.844 2729.73 189.872C2732.3 185.859 2733.58 180.936 2733.58 175.102Z" fill="#070707"/>
<path d="M2606.82 213.516C2598.59 213.516 2591.31 211.426 2584.98 207.248C2578.69 203.069 2573.76 197.298 2570.21 189.934C2566.65 182.528 2564.87 173.985 2564.87 164.304C2564.87 154.541 2566.65 145.956 2570.21 138.551C2573.76 131.104 2578.69 125.312 2584.98 121.175C2591.31 116.996 2598.59 114.907 2606.82 114.907C2615.05 114.907 2622.31 116.996 2628.6 121.175C2634.89 125.353 2639.81 131.145 2643.37 138.551C2646.97 145.956 2648.77 154.541 2648.77 164.304C2648.77 173.985 2646.99 182.528 2643.43 189.934C2639.88 197.298 2634.93 203.069 2628.6 207.248C2622.31 211.426 2615.05 213.516 2606.82 213.516ZM2606.82 203.4C2613.44 203.4 2619.05 201.621 2623.64 198.063C2628.23 194.505 2631.7 189.768 2634.06 183.852C2636.46 177.936 2637.66 171.42 2637.66 164.304C2637.66 157.188 2636.46 150.652 2634.06 144.694C2631.7 138.737 2628.23 133.958 2623.64 130.359C2619.05 126.76 2613.44 124.96 2606.82 124.96C2600.24 124.96 2594.64 126.76 2590 130.359C2585.41 133.958 2581.91 138.737 2579.51 144.694C2577.16 150.652 2575.98 157.188 2575.98 164.304C2575.98 171.42 2577.16 177.936 2579.51 183.852C2581.91 189.768 2585.41 194.505 2590 198.063C2594.59 201.621 2600.2 203.4 2606.82 203.4Z" fill="#070707"/>
<path d="M2419.76 211.53V116.21H2430.49V130.855H2431.49C2433.39 125.932 2436.55 122.064 2440.98 119.251C2445.45 116.396 2450.81 114.969 2457.05 114.969C2463.63 114.969 2469.03 116.52 2473.25 119.623C2477.51 122.685 2480.7 126.904 2482.81 132.283H2483.61C2485.77 126.987 2489.26 122.788 2494.1 119.685C2498.98 116.541 2504.9 114.969 2511.85 114.969C2520.7 114.969 2527.7 117.761 2532.83 123.346C2537.96 128.89 2540.52 136.999 2540.52 147.673V211.53H2529.47V147.673C2529.47 140.143 2527.55 134.496 2523.7 130.731C2519.86 126.966 2514.79 125.084 2508.5 125.084C2501.22 125.084 2495.61 127.318 2491.68 131.786C2487.75 136.254 2485.79 141.922 2485.79 148.79V211.53H2474.49V146.68C2474.49 140.226 2472.69 135.013 2469.09 131.042C2465.49 127.07 2460.43 125.084 2453.89 125.084C2449.5 125.084 2445.55 126.16 2442.04 128.311C2438.56 130.462 2435.81 133.462 2433.78 137.309C2431.8 141.116 2430.8 145.501 2430.8 150.465V211.53H2419.76Z" fill="#070707"/>
<path d="M2353.56 213.516C2345.33 213.516 2338.05 211.426 2331.72 207.248C2325.43 203.069 2320.51 197.298 2316.95 189.934C2313.39 182.528 2311.61 173.985 2311.61 164.304C2311.61 154.541 2313.39 145.956 2316.95 138.551C2320.51 131.104 2325.43 125.312 2331.72 121.175C2338.05 116.996 2345.33 114.907 2353.56 114.907C2361.8 114.907 2369.06 116.996 2375.35 121.175C2381.63 125.353 2386.56 131.145 2390.12 138.551C2393.71 145.956 2395.51 154.541 2395.51 164.304C2395.51 173.985 2393.74 182.528 2390.18 189.934C2386.62 197.298 2381.68 203.069 2375.35 207.248C2369.06 211.426 2361.8 213.516 2353.56 213.516ZM2353.56 203.4C2360.18 203.4 2365.79 201.621 2370.38 198.063C2374.97 194.505 2378.45 189.768 2380.81 183.852C2383.21 177.936 2384.41 171.42 2384.41 164.304C2384.41 157.188 2383.21 150.652 2380.81 144.694C2378.45 138.737 2374.97 133.958 2370.38 130.359C2365.79 126.76 2360.18 124.96 2353.56 124.96C2346.99 124.96 2341.38 126.76 2336.75 130.359C2332.15 133.958 2328.66 138.737 2326.26 144.694C2323.9 150.652 2322.72 157.188 2322.72 164.304C2322.72 171.42 2323.9 177.936 2326.26 183.852C2328.66 189.768 2332.15 194.505 2336.75 198.063C2341.34 201.621 2346.94 203.4 2353.56 203.4Z" fill="#070707"/>
<path d="M2226.35 151.955V211.53H2215.31V116.21H2226.04V131.166H2227.04C2229.27 126.284 2232.75 122.374 2237.46 119.437C2242.22 116.458 2248.1 114.969 2255.09 114.969C2261.5 114.969 2267.13 116.313 2271.97 119.002C2276.85 121.65 2280.63 125.56 2283.32 130.731C2286.05 135.903 2287.42 142.253 2287.42 149.783V211.53H2276.37V150.465C2276.37 142.646 2274.18 136.461 2269.79 131.91C2265.45 127.36 2259.62 125.084 2252.29 125.084C2247.29 125.084 2242.84 126.16 2238.95 128.311C2235.06 130.462 2231.98 133.565 2229.71 137.62C2227.47 141.633 2226.35 146.411 2226.35 151.955Z" fill="#070707"/>
<path d="M2149.11 213.516C2140.88 213.516 2133.6 211.426 2127.27 207.248C2120.98 203.069 2116.06 197.298 2112.5 189.934C2108.94 182.528 2107.16 173.985 2107.16 164.304C2107.16 154.541 2108.94 145.956 2112.5 138.551C2116.06 131.104 2120.98 125.312 2127.27 121.175C2133.6 116.996 2140.88 114.907 2149.11 114.907C2157.35 114.907 2164.61 116.996 2170.89 121.175C2177.18 125.353 2182.11 131.145 2185.66 138.551C2189.26 145.956 2191.06 154.541 2191.06 164.304C2191.06 173.985 2189.28 182.528 2185.73 189.934C2182.17 197.298 2177.22 203.069 2170.89 207.248C2164.61 211.426 2157.35 213.516 2149.11 213.516ZM2149.11 203.4C2155.73 203.4 2161.34 201.621 2165.93 198.063C2170.52 194.505 2174 189.768 2176.36 183.852C2178.76 177.936 2179.96 171.42 2179.96 164.304C2179.96 157.188 2178.76 150.652 2176.36 144.694C2174 138.737 2170.52 133.958 2165.93 130.359C2161.34 126.76 2155.73 124.96 2149.11 124.96C2142.53 124.96 2136.93 126.76 2132.3 130.359C2127.7 133.958 2124.21 138.737 2121.81 144.694C2119.45 150.652 2118.27 157.188 2118.27 164.304C2118.27 171.42 2119.45 177.936 2121.81 183.852C2124.21 189.768 2127.7 194.505 2132.3 198.063C2136.89 201.621 2142.49 203.4 2149.11 203.4Z" fill="#070707"/>
<path d="M2088 116.211V125.83H2042.51V116.211H2088ZM2056.72 93.374H2067.83V186.646C2067.83 190.618 2068.52 193.741 2069.88 196.017C2071.25 198.251 2073.03 199.844 2075.22 200.795C2077.41 201.705 2079.75 202.16 2082.23 202.16C2083.68 202.16 2084.92 202.078 2085.95 201.912C2086.99 201.705 2087.9 201.498 2088.68 201.292L2091.04 211.283C2089.97 211.696 2088.64 212.069 2087.07 212.4C2085.5 212.772 2083.55 212.958 2081.24 212.958C2077.18 212.958 2073.27 212.069 2069.51 210.29C2065.79 208.511 2062.72 205.863 2060.32 202.347C2057.92 198.83 2056.72 194.465 2056.72 189.252V93.374Z" fill="#070707"/>
<path d="M2010.16 175.102V116.21H2021.21V211.53H2010.16V195.705H2009.29C2007.06 200.587 2003.52 204.662 1998.68 207.931C1993.84 211.158 1987.93 212.771 1980.93 212.771C1974.85 212.771 1969.45 211.447 1964.74 208.799C1960.02 206.11 1956.32 202.18 1953.63 197.008C1950.94 191.837 1949.6 185.487 1949.6 177.957V116.21H1960.64V177.274C1960.64 184.721 1962.83 190.72 1967.22 195.271C1971.61 199.78 1977.23 202.035 1984.1 202.035C1988.4 202.035 1992.54 201.001 1996.51 198.932C2000.48 196.864 2003.75 193.844 2006.32 189.872C2008.88 185.859 2010.16 180.936 2010.16 175.102Z" fill="#070707"/>
<path d="M1837.4 211.531H1825.24L1871.47 84.4375H1883.88L1930.11 211.531H1917.95L1878.11 99.5174H1877.24L1837.4 211.531ZM1846.15 162.816H1909.2V173.241H1846.15V162.816Z" fill="#070707"/>
<path d="M2800.07 436.09C2793.59 436.09 2787.92 435.245 2783.06 433.555C2778.19 431.905 2774.09 429.637 2770.75 426.751C2767.41 423.865 2764.81 420.628 2762.96 417.041L2771.99 411.103C2773.35 413.495 2775.16 415.845 2777.43 418.154C2779.74 420.463 2782.73 422.38 2786.4 423.906C2790.11 425.432 2794.67 426.194 2800.07 426.194C2808.48 426.194 2815.26 424.092 2820.42 419.886C2825.61 415.68 2828.21 409.144 2828.21 400.279V378.879H2827.22C2825.94 381.766 2824.11 384.652 2821.71 387.538C2819.32 390.383 2816.19 392.754 2812.31 394.651C2808.48 396.548 2803.72 397.496 2798.03 397.496C2790.44 397.496 2783.7 395.62 2777.8 391.868C2771.95 388.116 2767.33 382.755 2763.95 375.787C2760.61 368.777 2758.94 360.427 2758.94 350.738C2758.94 341.13 2760.57 332.678 2763.82 325.379C2767.12 318.081 2771.72 312.391 2777.62 308.309C2783.51 304.227 2790.38 302.186 2798.21 302.186C2804.03 302.186 2808.85 303.216 2812.68 305.278C2816.52 307.298 2819.59 309.814 2821.9 312.824C2824.25 315.834 2826.09 318.761 2827.4 321.606H2828.52V303.484H2839.28V400.96C2839.28 409 2837.57 415.618 2834.15 420.813C2830.72 426.009 2826.06 429.844 2820.17 432.318C2814.27 434.833 2807.57 436.09 2800.07 436.09ZM2799.33 387.415C2805.43 387.415 2810.64 385.951 2814.97 383.023C2819.3 380.054 2822.62 375.807 2824.93 370.282C2827.24 364.757 2828.39 358.18 2828.39 350.552C2828.39 343.13 2827.26 336.553 2824.99 330.822C2822.72 325.049 2819.43 320.514 2815.1 317.215C2810.81 313.875 2805.55 312.205 2799.33 312.205C2792.98 312.205 2787.61 313.916 2783.24 317.339C2778.87 320.761 2775.57 325.379 2773.35 331.193C2771.12 336.966 2770.01 343.419 2770.01 350.552C2770.01 357.809 2771.14 364.221 2773.41 369.787C2775.68 375.313 2779 379.642 2783.37 382.776C2787.74 385.868 2793.06 387.415 2799.33 387.415Z" fill="#070707"/>
<path d="M2673.97 339.11V398.485H2662.96V303.484H2673.66V318.39H2674.65C2676.87 313.524 2680.34 309.628 2685.04 306.7C2689.78 303.731 2695.63 302.247 2702.6 302.247C2708.99 302.247 2714.6 303.587 2719.43 306.267C2724.29 308.906 2728.06 312.803 2730.74 317.957C2733.47 323.111 2734.83 329.44 2734.83 336.945V398.485H2723.82V337.625C2723.82 329.832 2721.63 323.668 2717.26 319.132C2712.93 314.596 2707.12 312.329 2699.82 312.329C2694.83 312.329 2690.4 313.401 2686.52 315.545C2682.65 317.689 2679.57 320.781 2677.31 324.822C2675.08 328.822 2673.97 333.584 2673.97 339.11Z" fill="#070707"/>
<path d="M2622.77 398.486V303.485H2633.84V398.486H2622.77ZM2628.4 287.156C2626.13 287.156 2624.19 286.394 2622.58 284.868C2620.98 283.301 2620.17 281.425 2620.17 279.24C2620.17 277.054 2620.98 275.199 2622.58 273.673C2624.19 272.106 2626.13 271.323 2628.4 271.323C2630.67 271.323 2632.6 272.106 2634.21 273.673C2635.82 275.199 2636.62 277.054 2636.62 279.24C2636.62 281.425 2635.82 283.301 2634.21 284.868C2632.6 286.394 2630.67 287.156 2628.4 287.156Z" fill="#070707"/>
<path d="M2560.57 398.487V303.486H2571.27V318.083H2572.07C2573.97 313.3 2577.27 309.444 2581.97 306.517C2586.71 303.548 2592.07 302.063 2598.05 302.063C2598.96 302.063 2599.97 302.084 2601.08 302.125C2602.19 302.167 2603.12 302.208 2603.86 302.249V313.444C2603.37 313.361 2602.5 313.238 2601.27 313.073C2600.03 312.908 2598.69 312.825 2597.24 312.825C2592.3 312.825 2587.89 313.877 2584.01 315.98C2580.17 318.041 2577.14 320.907 2574.92 324.577C2572.69 328.247 2571.58 332.432 2571.58 337.132V398.487H2560.57Z" fill="#070707"/>
<path d="M2520.41 362.18V303.484H2531.42V398.486H2520.41V382.714H2519.54C2517.32 387.58 2513.79 391.641 2508.97 394.898C2504.14 398.115 2498.25 399.723 2491.28 399.723C2485.22 399.723 2479.83 398.403 2475.13 395.764C2470.43 393.084 2466.74 389.167 2464.06 384.013C2461.38 378.859 2460.04 372.529 2460.04 365.025V303.484H2471.05V364.345C2471.05 371.767 2473.24 377.745 2477.61 382.281C2481.98 386.775 2487.59 389.023 2494.43 389.023C2498.72 389.023 2502.84 387.992 2506.8 385.93C2510.76 383.869 2514.02 380.858 2516.57 376.9C2519.13 372.9 2520.41 367.994 2520.41 362.18Z" fill="#070707"/>
<path d="M2435.04 303.486V313.073H2389.7V303.486H2435.04ZM2403.87 280.725H2414.94V373.685C2414.94 377.644 2415.62 380.757 2416.98 383.025C2418.34 385.251 2420.11 386.839 2422.3 387.787C2424.48 388.694 2426.81 389.148 2429.29 389.148C2430.73 389.148 2431.97 389.065 2433 388.9C2434.03 388.694 2434.94 388.488 2435.72 388.282L2438.07 398.24C2437 398.652 2435.68 399.023 2434.11 399.353C2432.54 399.724 2430.61 399.91 2428.3 399.91C2424.26 399.91 2420.36 399.023 2416.61 397.25C2412.9 395.477 2409.85 392.838 2407.45 389.333C2405.06 385.829 2403.87 381.478 2403.87 376.283V280.725Z" fill="#070707"/>
<path d="M2337.78 400.465C2329.29 400.465 2321.89 398.341 2315.58 394.094C2309.31 389.847 2304.44 384.033 2300.98 376.653C2297.52 369.272 2295.79 360.86 2295.79 351.418C2295.79 341.893 2297.54 333.42 2301.04 325.998C2304.59 318.576 2309.5 312.762 2315.76 308.556C2322.03 304.309 2329.31 302.186 2337.6 302.186C2343.94 302.186 2349.7 303.423 2354.85 305.897C2360.01 308.329 2364.25 311.772 2367.59 316.225C2370.97 320.637 2373.1 325.792 2373.96 331.688H2362.83C2361.68 326.328 2358.89 321.751 2354.48 317.957C2350.11 314.123 2344.54 312.205 2337.78 312.205C2331.72 312.205 2326.36 313.855 2321.7 317.153C2317.04 320.411 2313.39 324.967 2310.75 330.822C2308.15 336.636 2306.86 343.378 2306.86 351.047C2306.86 358.758 2308.13 365.582 2310.69 371.519C2313.25 377.416 2316.83 382.034 2321.45 385.374C2326.11 388.713 2331.55 390.383 2337.78 390.383C2341.99 390.383 2345.82 389.6 2349.28 388.033C2352.79 386.425 2355.72 384.157 2358.07 381.23C2360.46 378.302 2362.07 374.818 2362.89 370.777H2374.02C2373.2 376.508 2371.16 381.621 2367.9 386.116C2364.69 390.569 2360.5 394.074 2355.35 396.63C2350.23 399.187 2344.38 400.465 2337.78 400.465Z" fill="#070707"/>
<path d="M2230.26 400.65C2224.52 400.65 2219.29 399.537 2214.55 397.311C2209.8 395.043 2206.03 391.785 2203.23 387.538C2200.42 383.25 2199.02 378.055 2199.02 371.952C2199.02 367.252 2199.91 363.293 2201.68 360.077C2203.45 356.861 2205.97 354.222 2209.23 352.16C2212.48 350.099 2216.34 348.47 2220.79 347.274C2225.25 346.078 2230.15 345.151 2235.51 344.491C2240.83 343.831 2245.33 343.254 2249 342.759C2252.71 342.264 2255.53 341.481 2257.47 340.409C2259.41 339.337 2260.38 337.605 2260.38 335.213V332.987C2260.38 326.513 2258.44 321.421 2254.56 317.71C2250.73 313.958 2245.2 312.082 2237.99 312.082C2231.14 312.082 2225.55 313.587 2221.23 316.597C2216.94 319.607 2213.93 323.153 2212.2 327.235L2201.74 323.462C2203.89 318.267 2206.86 314.123 2210.65 311.03C2214.44 307.896 2218.69 305.649 2223.39 304.288C2228.09 302.887 2232.85 302.186 2237.68 302.186C2241.31 302.186 2245.08 302.66 2249 303.608C2252.95 304.556 2256.62 306.206 2260 308.556C2263.39 310.865 2266.13 314.102 2268.23 318.267C2270.33 322.39 2271.38 327.626 2271.38 333.976V398.486H2260.38V383.456H2259.7C2258.38 386.26 2256.42 388.981 2253.82 391.62C2251.22 394.259 2247.96 396.424 2244.05 398.115C2240.13 399.805 2235.53 400.65 2230.26 400.65ZM2231.74 390.569C2237.59 390.569 2242.67 389.27 2246.95 386.672C2251.24 384.075 2254.54 380.632 2256.85 376.343C2259.2 372.014 2260.38 367.252 2260.38 362.056V348.326C2259.55 349.109 2258.17 349.81 2256.23 350.428C2254.34 351.047 2252.13 351.604 2249.61 352.098C2247.14 352.552 2244.67 352.944 2242.19 353.274C2239.72 353.603 2237.49 353.892 2235.51 354.139C2230.15 354.799 2225.58 355.83 2221.78 357.232C2217.99 358.634 2215.08 360.572 2213.06 363.046C2211.04 365.479 2210.03 368.612 2210.03 372.447C2210.03 378.22 2212.09 382.693 2216.22 385.868C2220.34 389.002 2225.51 390.569 2231.74 390.569Z" fill="#070707"/>
<path d="M2184.3 303.485V313.071H2137.61V303.485H2184.3ZM2152.2 398.486V289.569C2152.2 284.456 2153.38 280.147 2155.73 276.642C2158.12 273.137 2161.23 270.478 2165.07 268.663C2168.9 266.849 2172.96 265.942 2177.25 265.942C2180.14 265.942 2182.53 266.189 2184.43 266.684C2186.37 267.138 2187.89 267.591 2189 268.045L2185.79 277.693C2184.96 277.446 2183.95 277.157 2182.76 276.827C2181.56 276.498 2180.06 276.333 2178.24 276.333C2173.46 276.333 2169.77 277.673 2167.17 280.353C2164.57 283.033 2163.27 286.868 2163.27 291.857L2163.21 398.486H2152.2Z" fill="#070707"/>
<path d="M2105.05 362.18V303.484H2116.06V398.486H2105.05V382.714H2104.19C2101.96 387.58 2098.44 391.641 2093.61 394.898C2088.79 398.115 2082.89 399.723 2075.92 399.723C2069.86 399.723 2064.48 398.403 2059.78 395.764C2055.08 393.084 2051.39 389.167 2048.71 384.013C2046.03 378.859 2044.69 372.529 2044.69 365.025V303.484H2055.7V364.345C2055.7 371.767 2057.88 377.745 2062.25 382.281C2066.63 386.775 2072.23 389.023 2079.08 389.023C2083.37 389.023 2087.49 387.992 2091.45 385.93C2095.41 383.869 2098.66 380.858 2101.22 376.9C2103.78 372.9 2105.05 367.994 2105.05 362.18Z" fill="#070707"/>
<path d="M1954.85 339.11V398.485H1943.84V303.484H1954.54V318.39H1955.53C1957.75 313.524 1961.22 309.628 1965.92 306.7C1970.66 303.731 1976.51 302.247 1983.48 302.247C1989.87 302.247 1995.48 303.587 2000.31 306.267C2005.17 308.906 2008.94 312.803 2011.62 317.957C2014.35 323.111 2015.71 329.44 2015.71 336.945V398.485H2004.7V337.625C2004.7 329.832 2002.51 323.668 1998.14 319.132C1993.81 314.596 1988 312.329 1980.7 312.329C1975.71 312.329 1971.28 313.401 1967.4 315.545C1963.53 317.689 1960.45 320.781 1958.19 324.822C1955.96 328.822 1954.85 333.584 1954.85 339.11Z" fill="#070707"/>
<path d="M1873.42 400.65C1867.68 400.65 1862.45 399.537 1857.71 397.311C1852.96 395.043 1849.19 391.785 1846.39 387.538C1843.58 383.25 1842.18 378.055 1842.18 371.952C1842.18 367.252 1843.07 363.293 1844.84 360.077C1846.61 356.861 1849.13 354.222 1852.39 352.16C1855.64 350.099 1859.5 348.47 1863.95 347.274C1868.41 346.078 1873.31 345.151 1878.67 344.491C1883.99 343.831 1888.49 343.254 1892.16 342.759C1895.87 342.264 1898.69 341.481 1900.63 340.409C1902.57 339.337 1903.54 337.605 1903.54 335.213V332.987C1903.54 326.513 1901.6 321.421 1897.72 317.71C1893.89 313.958 1888.36 312.082 1881.15 312.082C1874.3 312.082 1868.71 313.587 1864.39 316.597C1860.1 319.607 1857.09 323.153 1855.36 327.235L1844.9 323.462C1847.05 318.267 1850.02 314.123 1853.81 311.03C1857.6 307.896 1861.85 305.649 1866.55 304.288C1871.25 302.887 1876.01 302.186 1880.84 302.186C1884.47 302.186 1888.24 302.66 1892.16 303.608C1896.11 304.556 1899.78 306.206 1903.16 308.556C1906.55 310.865 1909.29 314.102 1911.39 318.267C1913.49 322.39 1914.55 327.626 1914.55 333.976V398.486H1903.54V383.456H1902.86C1901.54 386.26 1899.58 388.981 1896.98 391.62C1894.38 394.259 1891.12 396.424 1887.21 398.115C1883.29 399.805 1878.69 400.65 1873.42 400.65ZM1874.9 390.569C1880.75 390.569 1885.83 389.27 1890.11 386.672C1894.4 384.075 1897.7 380.632 1900.01 376.343C1902.36 372.014 1903.54 367.252 1903.54 362.056V348.326C1902.71 349.109 1901.33 349.81 1899.39 350.428C1897.5 351.047 1895.29 351.604 1892.77 352.098C1890.3 352.552 1887.83 352.944 1885.35 353.274C1882.88 353.603 1880.65 353.892 1878.67 354.139C1873.31 354.799 1868.74 355.83 1864.94 357.232C1861.15 358.634 1858.24 360.572 1856.22 363.046C1854.2 365.479 1853.19 368.612 1853.19 372.447C1853.19 378.22 1855.25 382.693 1859.38 385.868C1863.5 389.002 1868.67 390.569 1874.9 390.569Z" fill="#070707"/>
<path d="M1695.75 271.817H1709.11L1755.07 382.157H1756.18L1802.13 271.817H1815.49V398.486H1804.61V296.248H1803.62L1760.88 398.486H1750.37L1707.63 296.248H1706.64V398.486H1695.75V271.817Z" fill="#070707"/>
<g clip-path="url(#clip1_1226_10407)">
<path d="M798.005 347.689L797.136 186.679L859.33 343.877C863.48 350.246 909.317 350.343 914.577 343.829L976.819 186.679L976.723 347.689L1024.78 347.592C1024.3 283.13 1025.65 209.983 1024.59 144.749L948.159 144.508L888.232 298.426L828.306 144.46H754.676L754.049 347.689H797.956H798.005Z" fill="#070707"/>
<path d="M1486.05 319.464C1484.17 330.609 1474.13 340.597 1463.57 344.264C1444.22 350.971 1344.34 350.344 1320.07 347.979C1295.8 345.615 1279.3 335.386 1276.36 309.524C1273.07 280.671 1273.46 212.107 1276.36 182.916C1278.86 157.971 1292.86 146.391 1317.42 144.316C1344.24 142.048 1437.61 140.649 1460.57 146.101C1474.33 149.382 1483.73 158.888 1485.76 173.17C1486.68 179.587 1488.12 206.559 1481.9 208.585L1443.4 207.861C1437.56 203.76 1448.08 185.184 1427.18 181.758C1411.41 179.201 1361.9 179.925 1344.97 181.613C1340.62 182.048 1328.22 184.846 1326.25 188.417C1324.89 193.097 1324.07 197.777 1323.69 202.65C1322.63 216.353 1322 292.251 1325.62 300.212C1326.58 302.335 1328.32 304.265 1330.25 305.519C1343.81 314.06 1414.59 305.085 1434.42 307.835C1444.6 304.41 1440.21 279.561 1441.08 271.021H1387.43C1381.4 263.059 1381.3 242.071 1387.43 233.772H1486C1482.96 259.634 1490.1 294.711 1486 319.415L1486.05 319.464Z" fill="#070707"/>
<path d="M645.392 143.591L737.839 347.785H688.383L668.263 308.123L557.191 309.812C551.16 322.357 545.515 333.792 538.712 347.737H492.15L583.343 143.591H645.441H645.392ZM652.34 271.067L614.85 181.708L574.947 271.067H652.34Z" fill="#070707"/>
<path d="M1111.92 348.028V269.718L1115.58 266.003H1231.67C1235.39 253.892 1235.39 240.865 1231.67 228.754H1111.87V181.565H1252.9C1258.94 173.604 1259.03 152.615 1252.9 144.316H1064.44V347.883H1111.92V348.028Z" fill="#070707"/>
</g>
<defs>
<clipPath id="clip0_1226_10407">
<rect width="337.75" height="395.65" fill="white" transform="translate(57.9004 45.8374)"/>
</clipPath>
<clipPath id="clip1_1226_10407">
<rect width="995.204" height="207.282" fill="white" transform="translate(492.15 142.337)"/>
</clipPath>
</defs>
</svg>
